<svg width="70" height="70" viewBox="0 0 70 70" fill="none" xmlns="http://www.w3.org/2000/svg">
<path d="M11.9155 35.9007C10.8548 35.9007 9.80824 35.6567 8.85687 35.1875C7.90551 34.7184 7.07482 34.0367 6.42907 33.1951C5.78332 32.3535 5.33982 31.3747 5.13288 30.3343C4.92594 29.294 4.9611 28.2199 5.23564 27.1953L8.57559 28.0902C8.43832 28.6026 8.42074 29.1396 8.52421 29.6598C8.62768 30.1799 8.84943 30.6694 9.1723 31.0901C9.49518 31.5109 9.91052 31.8518 10.3862 32.0864C10.8619 32.3209 11.3852 32.443 11.9155 32.443" stroke="#595959"/>
<path d="M41.5939 54.9102V58.4896C41.5939 59.323 42.2694 59.9986 43.1028 59.9986H51.4028C52.2361 59.9986 52.9117 59.323 52.9117 58.4896V50.5" stroke="#595959"/>
<path d="M18.958 49V58.4896C18.958 59.323 19.6335 59.9986 20.4669 59.9986H28.7669C29.6003 59.9986 30.2758 59.323 30.2758 58.4896V54.5" stroke="#595959"/>
<path fill-rule="evenodd" clip-rule="evenodd" d="M60.8984 28.7348C59.5589 24.8384 56.8702 21.4077 53.2737 18.8065V11.64C53.2737 10.7343 52.5374 10 51.6291 10C48.0771 10 44.9196 11.6847 42.916 14.2962C40.9067 13.8718 38.8005 13.6464 36.6303 13.6464C22.7032 13.6464 11.413 22.9347 11.413 34.393C11.413 45.8512 22.7032 55.1396 36.6303 55.1396C46.43 55.1396 54.9242 50.5408 59.0981 43.8232H62.4781C63.8708 43.8232 64.9998 42.6975 64.9998 41.3085V31.2495C64.9998 29.8605 63.8708 28.7348 62.4781 28.7348H60.8984ZM28.0129 21.1895C28.0129 20.6339 28.4633 20.1836 29.0188 20.1836H44.6126C45.1681 20.1836 45.6185 20.6339 45.6185 21.1895C45.6185 21.745 45.1681 22.1954 44.6126 22.1954H29.0188C28.4633 22.1954 28.0129 21.745 28.0129 21.1895ZM51.2769 32.5065C52.3185 32.5065 53.1629 31.6621 53.1629 30.6204C53.1629 29.5788 52.3185 28.7344 51.2769 28.7344C50.2352 28.7344 49.3908 29.5788 49.3908 30.6204C49.3908 31.6621 50.2352 32.5065 51.2769 32.5065Z" fill="black" fill-opacity="0.08" stroke="#595959"/>
</svg>
